<svg width="27" height="27" viewBox="0 0 27 27" fill="none" xmlns="http://www.w3.org/2000/svg">
<path d="M25.2197 20.5898C24.2653 19.6283 21.954 18.2251 20.8326 17.6596C19.3722 16.9241 19.252 16.864 18.1041 17.7167C17.3385 18.2858 16.8295 18.7942 15.9334 18.6031C15.0373 18.412 13.0902 17.3345 11.3852 15.6351C9.68024 13.9356 8.54019 11.9321 8.34848 11.0391C8.15677 10.1461 8.67361 9.64316 9.23732 8.87576C10.0318 7.79408 9.97172 7.6138 9.29261 6.15352C8.76315 5.01775 7.31901 2.72819 6.35384 1.77871C5.32136 0.758923 5.32136 0.939203 4.65608 1.21563C4.11447 1.4435 3.59485 1.72049 3.10376 2.04312C2.1422 2.68192 1.60853 3.21254 1.23533 4.00998C0.86212 4.80743 0.694447 6.67694 2.62178 10.178C4.54911 13.679 5.9013 15.4692 8.70005 18.26C11.4988 21.0507 13.6509 22.5513 16.797 24.3156C20.6889 26.4952 22.1818 26.0703 22.9817 25.6978C23.7815 25.3252 24.3146 24.7964 24.9547 23.8349C25.2781 23.3446 25.5558 22.8256 25.784 22.2844C26.0611 21.6216 26.2413 21.6216 25.2197 20.5898Z" fill="white" stroke="black" stroke-miterlimit="10"/>
</svg>
